<svg width="360" height="65" viewBox="0 0 360 65" fill="none" xmlns="http://www.w3.org/2000/svg">
<path d="M46.94 19.8605C46.9039 25.0907 44.8205 30.0987 41.1361 33.811C37.4518 37.5234 32.4598 39.6448 27.23 39.7205H14.44V64.9905C10.6135 64.9799 6.94678 63.4552 4.24104 60.7495C1.5353 58.0437 0.0105559 54.377 0 50.5505V25.2705H27.08C27.8107 25.3019 28.5402 25.1851 29.2245 24.9271C29.9089 24.6692 30.5339 24.2754 31.0621 23.7694C31.5902 23.2635 32.0105 22.6559 32.2976 21.9833C32.5847 21.3106 32.7328 20.5869 32.7328 19.8555C32.7328 19.1241 32.5847 18.4003 32.2976 17.7277C32.0105 17.055 31.5902 16.4475 31.0621 15.9416C30.5339 15.4356 29.9089 15.0418 29.2245 14.7838C28.5402 14.5259 27.8107 14.4091 27.08 14.4405H14.44C10.6143 14.4273 6.94912 12.9017 4.24394 10.1966C1.53877 7.49139 0.0131785 3.82616 0 0.000488281H27.08C32.3423 0.0163149 37.3846 2.11379 41.1057 5.83484C44.8267 9.55589 46.9242 14.5982 46.94 19.8605Z" fill="#37AA9C"/>
<path d="M117.08 32.5005C117.08 38.9284 115.174 45.2119 111.603 50.5565C108.032 55.9011 102.956 60.0667 97.0172 62.5266C91.0786 64.9864 84.5439 65.6301 78.2395 64.3761C71.9352 63.122 66.1442 60.0267 61.599 55.4815C57.0538 50.9363 53.9585 45.1453 52.7044 38.841C51.4504 32.5366 52.094 26.0019 54.5539 20.0633C57.0137 14.1247 61.1793 9.04888 66.5239 5.47774C71.8685 1.90659 78.1521 0.000502154 84.58 0.000502154C88.8491 -0.00344399 93.077 0.834503 97.0219 2.46638C100.967 4.09826 104.551 6.49204 107.57 9.51073C110.588 12.5294 112.982 16.1138 114.614 20.0586C116.246 24.0035 117.084 28.2314 117.08 32.5005ZM102.64 32.5005C102.642 28.9281 101.584 25.4355 99.6012 22.4642C97.6179 19.4929 94.798 17.1766 91.4982 15.8081C88.1983 14.4397 84.5667 14.0806 81.0628 14.7763C77.5588 15.472 74.3399 17.1913 71.8132 19.7166C69.2864 22.242 67.5654 25.4599 66.8677 28.9635C66.1701 32.4671 66.5271 36.0988 67.8938 39.3994C69.2604 42.7 71.5752 45.5213 74.5453 47.5062C77.5155 49.4911 81.0076 50.5505 84.58 50.5505C89.3632 50.5347 93.9461 48.6282 97.3293 45.2469C100.713 41.8656 102.622 37.2837 102.64 32.5005Z" fill="#37AA9C"/>
<path d="M170.35 19.8605C170.314 25.0856 168.235 30.0891 164.557 33.8007C160.879 37.5122 155.894 39.637 150.67 39.7205H137.85V64.9905C134.023 64.9799 130.357 63.4552 127.651 60.7495C124.945 58.0437 123.42 54.377 123.41 50.5505V25.2705H150.49C151.886 25.2105 153.205 24.6138 154.171 23.6048C155.138 22.5959 155.677 21.2527 155.677 19.8555C155.677 18.4583 155.138 17.1151 154.171 16.1062C153.205 15.0972 151.886 14.5005 150.49 14.4405H137.85C134.024 14.4273 130.359 12.9017 127.654 10.1966C124.949 7.49139 123.423 3.82616 123.41 0.000488281H150.49C155.752 0.0163149 160.795 2.11379 164.516 5.83484C168.237 9.55589 170.334 14.5982 170.35 19.8605Z" fill="#37AA9C"/>
<path d="M190.84 25.2705H212.51C212.499 29.0996 210.974 32.7689 208.266 35.4765C205.558 38.1841 201.889 39.71 198.06 39.7205H190.84V64.9905C187.014 64.9799 183.347 63.4552 180.641 60.7495C177.935 58.0437 176.411 54.377 176.4 50.5505V0.000488281H208.9C212.726 0.0136667 216.391 1.53924 219.096 4.24442C221.801 6.94959 223.327 10.6148 223.34 14.4405H190.84V25.2705Z" fill="#ED6363"/>
<path d="M280.48 50.5505C280.469 54.377 278.945 58.0437 276.239 60.7495C273.533 63.4552 269.866 64.9799 266.04 64.9905H228.49V14.4405C228.503 10.6148 230.029 6.94959 232.734 4.24442C235.439 1.53924 239.104 0.0136667 242.93 0.000488281V50.5505H280.48Z" fill="#ED6363"/>
<path d="M285.63 50.5505V0.000488281C289.456 0.0110441 293.123 1.53578 295.829 4.24152C298.535 6.94726 300.059 10.614 300.07 14.4405V64.9905C296.244 64.9799 292.577 63.4552 289.871 60.7495C287.165 58.0437 285.641 54.377 285.63 50.5505Z" fill="#ED6363"/>
<path d="M340.61 32.5004L359.38 64.9903H350.99C348.526 64.9972 346.103 64.3697 343.952 63.1682C341.801 61.9667 339.996 60.2318 338.71 58.1304L332.3 46.9404L332.21 47.0304V46.9404L325.8 58.1304C324.497 60.2341 322.677 61.969 320.513 63.1699C318.35 64.3707 315.915 64.9974 313.44 64.9903H305.13L323.91 32.5004L305.13 0.000359401H313.44C315.871 -0.0169007 318.267 0.58779 320.398 1.75695C322.53 2.92611 324.328 4.6209 325.62 6.68035L332.23 18.0503H332.32L338.91 6.68035C340.192 4.62983 341.977 2.94026 344.094 1.77139C346.211 0.602509 348.592 -0.00704874 351.01 0.000359401H359.4L340.61 32.5004Z" fill="#ED6363"/>
</svg>
